<svg width="110" height="110" viewBox="0 0 110 110" fill="none" xmlns="http://www.w3.org/2000/svg">
<path d="M54.9994 9.1665C45.9344 9.1665 37.073 11.8546 29.5357 16.8908C21.9985 21.927 16.1239 29.0852 12.6549 37.4602C9.18587 45.8351 8.27822 55.0507 10.0467 63.9415C11.8152 72.8323 16.1804 80.999 22.5903 87.4089C29.0002 93.8188 37.1669 98.184 46.0578 99.9525C54.9485 101.721 64.1641 100.813 72.5391 97.3444C80.914 93.8753 88.0722 88.0008 93.1084 80.4635C98.1447 72.9262 100.833 64.0648 100.833 54.9999C100.833 48.9809 99.6472 43.0209 97.3439 37.4602C95.0406 31.8994 91.6645 26.8468 87.4085 22.5908C83.1524 18.3348 78.0998 14.9587 72.5391 12.6554C66.9783 10.352 61.0183 9.1665 54.9994 9.1665ZM38.9577 36.6665C40.3175 36.6665 41.6467 37.0697 42.7773 37.8252C43.9078 38.5806 44.789 39.6543 45.3094 40.9106C45.8297 42.1668 45.9659 43.5491 45.7006 44.8828C45.4353 46.2164 44.7806 47.4414 43.8191 48.4029C42.8576 49.3644 41.6326 50.0191 40.299 50.2844C38.9653 50.5497 37.583 50.4135 36.3268 49.8932C35.0705 49.3728 33.9968 48.4916 33.2414 47.3611C32.4859 46.2305 32.0827 44.9013 32.0827 43.5415C32.1291 41.7328 32.8683 40.0109 34.1477 38.7315C35.4271 37.4521 37.149 36.7129 38.9577 36.6665ZM77.9161 73.3332H59.5827C56.36 73.3284 53.1929 74.1733 50.4007 75.7826C47.6086 77.392 45.2899 79.7089 43.6786 82.4999L35.7494 77.9165C38.1645 73.7334 41.6388 70.2602 45.8227 67.8464C50.0066 65.4326 54.7525 64.1634 59.5827 64.1665H77.9161M71.0411 50.4165C69.6813 50.4165 68.3521 50.0133 67.2215 49.2579C66.0909 48.5024 65.2097 47.4287 64.6894 46.1725C64.169 44.9162 64.0329 43.5339 64.2982 42.2003C64.5634 40.8666 65.2182 39.6416 66.1797 38.6802C67.1412 37.7187 68.3662 37.0639 69.6998 36.7986C71.0334 36.5333 72.4158 36.6695 73.672 37.1898C74.9283 37.7102 76.002 38.5914 76.7574 39.722C77.5129 40.8526 77.9161 42.1818 77.9161 43.5415C77.8697 45.3503 77.1304 47.0721 75.8511 48.3515C74.5717 49.6309 72.8498 50.3701 71.0411 50.4165Z" fill="#CCA250"/>
</svg>
