<svg width="110" height="110" viewBox="0 0 110 110" fill="none" xmlns="http://www.w3.org/2000/svg">
<path d="M55.0004 9.1665C48.9814 9.1665 43.0214 10.352 37.4607 12.6554C31.8999 14.9587 26.8473 18.3348 22.5913 22.5908C13.9959 31.1862 9.16699 42.8441 9.16699 54.9999C9.16699 67.1556 13.9959 78.8135 22.5913 87.4089C26.8473 91.665 31.8999 95.041 37.4607 97.3444C43.0214 99.6477 48.9814 100.833 55.0004 100.833C67.1561 100.833 78.814 96.0044 87.4094 87.4089C96.0049 78.8135 100.834 67.1556 100.834 54.9999C100.834 48.9809 99.6482 43.021 97.3449 37.4602C95.0415 31.8994 91.6655 26.8468 87.4094 22.5908C83.1534 18.3348 78.1008 14.9587 72.54 12.6554C66.9793 10.352 61.0193 9.1665 55.0004 9.1665ZM32.0837 43.5415C32.0837 39.8749 35.292 36.6665 38.9587 36.6665C42.6253 36.6665 45.8337 39.8749 45.8337 43.5415C45.8337 47.2082 42.6253 50.4165 38.9587 50.4165C35.292 50.4165 32.0837 47.2082 32.0837 43.5415ZM55.0004 78.9707C46.9795 78.9707 39.9212 75.6249 35.7962 70.6749L42.3045 64.1665C44.367 67.4665 49.2712 69.804 55.0004 69.804C60.7295 69.804 65.6337 67.4665 67.6962 64.1665L74.2045 70.6749C70.0795 75.6249 63.0212 78.9707 55.0004 78.9707ZM71.042 50.4165C67.3754 50.4165 64.167 47.2082 64.167 43.5415C64.167 39.8749 67.3754 36.6665 71.042 36.6665C74.7087 36.6665 77.917 39.8749 77.917 43.5415C77.917 47.2082 74.7087 50.4165 71.042 50.4165Z" fill="#83BD6E"/>
</svg>
