<svg width="110" height="110" viewBox="0 0 110 110" fill="none" xmlns="http://www.w3.org/2000/svg">
<path d="M54.9994 9.1665C48.9805 9.1665 43.0205 10.352 37.4597 12.6554C31.8989 14.9587 26.8463 18.3348 22.5903 22.5908C13.9949 31.1862 9.16602 42.8441 9.16602 54.9999C9.16602 67.1556 13.9949 78.8135 22.5903 87.4089C26.8463 91.665 31.8989 95.041 37.4597 97.3444C43.0205 99.6477 48.9805 100.833 54.9994 100.833C67.1551 100.833 78.813 96.0044 87.4085 87.4089C96.0039 78.8135 100.833 67.1556 100.833 54.9999C100.833 48.9809 99.6472 43.021 97.3439 37.4602C95.0405 31.8994 91.6645 26.8468 87.4085 22.5908C83.1524 18.3348 78.0998 14.9587 72.539 12.6554C66.9783 10.352 61.0183 9.1665 54.9994 9.1665ZM32.0827 43.5415C32.0827 39.8749 35.291 36.6665 38.9577 36.6665C42.6244 36.6665 45.8327 39.8749 45.8327 43.5415C45.8327 47.2082 42.6244 50.4165 38.9577 50.4165C35.291 50.4165 32.0827 47.2082 32.0827 43.5415ZM67.6952 78.9707C65.6327 75.6249 60.7285 73.3332 54.9994 73.3332C49.2702 73.3332 44.366 75.6249 42.3035 78.9707L35.7952 72.4624C39.9202 67.4665 46.9785 64.1665 54.9994 64.1665C63.0202 64.1665 70.0786 67.4665 74.2036 72.4624L67.6952 78.9707ZM71.041 50.4165C67.3744 50.4165 64.166 47.2082 64.166 43.5415C64.166 39.8749 67.3744 36.6665 71.041 36.6665C74.7077 36.6665 77.9161 39.8749 77.9161 43.5415C77.9161 47.2082 74.7077 50.4165 71.041 50.4165Z" fill="#AE1717"/>
</svg>
