<svg width="110" height="110" viewBox="0 0 110 110" fill="none" xmlns="http://www.w3.org/2000/svg">
<path d="M55.0004 9.1665C29.6545 9.1665 9.16699 29.7915 9.16699 54.9999C9.16699 67.1556 13.9959 78.8135 22.5913 87.4089C26.8473 91.665 31.8999 95.041 37.4607 97.3444C43.0214 99.6477 48.9814 100.833 55.0004 100.833C67.1561 100.833 78.814 96.0044 87.4094 87.4089C96.0049 78.8135 100.834 67.1556 100.834 54.9999C100.834 48.9809 99.6482 43.021 97.3449 37.4602C95.0415 31.8994 91.6655 26.8468 87.4094 22.5908C83.1534 18.3348 78.1008 14.9587 72.54 12.6554C66.9793 10.352 61.0193 9.1665 55.0004 9.1665ZM71.042 36.6665C72.8654 36.6665 74.6141 37.3908 75.9034 38.6802C77.1927 39.9695 77.917 41.7182 77.917 43.5415C77.917 45.3649 77.1927 47.1136 75.9034 48.4029C74.6141 49.6922 72.8654 50.4165 71.042 50.4165C69.2187 50.4165 67.47 49.6922 66.1807 48.4029C64.8913 47.1136 64.167 45.3649 64.167 43.5415C64.167 41.7182 64.8913 39.9695 66.1807 38.6802C67.47 37.3908 69.2187 36.6665 71.042 36.6665ZM38.9587 36.6665C40.782 36.6665 42.5307 37.3908 43.82 38.6802C45.1094 39.9695 45.8337 41.7182 45.8337 43.5415C45.8337 45.3649 45.1094 47.1136 43.82 48.4029C42.5307 49.6922 40.782 50.4165 38.9587 50.4165C37.1353 50.4165 35.3866 49.6922 34.0973 48.4029C32.808 47.1136 32.0837 45.3649 32.0837 43.5415C32.0837 41.7182 32.808 39.9695 34.0973 38.6802C35.3866 37.3908 37.1353 36.6665 38.9587 36.6665ZM55.0004 80.2082C44.3212 80.2082 35.2462 73.5165 31.5795 64.1665H78.4212C74.7087 73.5165 65.6795 80.2082 55.0004 80.2082Z" fill="#4E914D"/>
</svg>
